<?xml version="1.0"?>
<svg xmlns="http://www.w3.org/2000/svg" viewBox="0 0 64 64" width="512" height="512">
<g id="Storage">
<path style="fill:#FFF;" d="M10,57H8a1,1,0,0,0,0,2h2a1,1,0,0,0,0-2Z"/>
<path style="fill:#FFF;" d="M10,54H8a1,1,0,0,0,0,2h2a1,1,0,0,0,0-2Z"/>
<path style="fill:#FFF;" d="M28,57H26a1,1,0,0,0,0,2h2a1,1,0,0,0,0-2Z"/>
<path style="fill:#FFF;" d="M28,54H26a1,1,0,0,0,0,2h2a1,1,0,0,0,0-2Z"/>
<path style="fill:#FFF;" d="M46,57H44a1,1,0,0,0,0,2h2a1,1,0,0,0,0-2Z"/>
<path style="fill:#FFF;" d="M46,54H44a1,1,0,0,0,0,2h2a1,1,0,0,0,0-2Z"/>
<path style="fill:#FFF;" d="M59,40H51V21a1,1,0,0,0-1-1H42V3a1,1,0,0,0-1-1H23a1,1,0,0,0-1,1V20H14a1,1,0,0,0-1,1V40H5a1,1,0,0,0-1,1V61a1,1,0,0,0,1,1H59a1,1,0,0,0,1-1V41A1,1,0,0,0,59,40ZM49,42h2v4H49Zm0-2H33V22h5v5a1,1,0,0,0,1,1h4a1,1,0,0,0,1-1V22h5ZM31,42h2v4H31ZM42,22v4H40V22ZM33,4V6H31V4ZM24,4h5V7a1,1,0,0,0,1,1h4a1,1,0,0,0,1-1V4h5V20H24Zm0,18v4H22V22Zm-9,0h5v5a1,1,0,0,0,1,1h4a1,1,0,0,0,1-1V22h5V40H15Zm0,20v4H13V42ZM6,42h5v5a1,1,0,0,0,1,1h4a1,1,0,0,0,1-1V42h5V60H6Zm18,0h5v5a1,1,0,0,0,1,1h4a1,1,0,0,0,1-1V42h5V60H24ZM58,60H42V42h5v5a1,1,0,0,0,1,1h4a1,1,0,0,0,1-1V42h5Z"/>
<path style="fill:#FFF;" d="M17,39h2a1,1,0,0,0,0-2H17a1,1,0,0,0,0,2Z"/>
<path style="fill:#FFF;" d="M17,36h2a1,1,0,0,0,0-2H17a1,1,0,0,0,0,2Z"/>
<path style="fill:#FFF;" d="M37,37H35a1,1,0,0,0,0,2h2a1,1,0,0,0,0-2Z"/>
<path style="fill:#FFF;" d="M37,34H35a1,1,0,0,0,0,2h2a1,1,0,0,0,0-2Z"/>
<path style="fill:#FFF;" d="M26,16h2a1,1,0,0,0,0-2H26a1,1,0,0,0,0,2Z"/>
<path style="fill:#FFF;" d="M26,19h2a1,1,0,0,0,0-2H26a1,1,0,0,0,0,2Z"/></g></svg>
